<svg width="183" height="204" viewBox="0 0 183 204" fill="none" xmlns="http://www.w3.org/2000/svg">
<path fill-rule="evenodd" clip-rule="evenodd" d="M79.4248 3.23545C86.8968 -1.07848 96.1032 -1.07848 103.575 3.23545L170.925 42.1202C178.397 46.4341 183 54.4065 183 63.0343V140.804C183 149.432 178.397 157.404 170.925 161.718L103.575 200.603C96.1032 204.917 86.8968 204.917 79.4248 200.603L12.0752 161.718C4.60325 157.404 8.63455e-06 149.432 0 140.804V63.0343C6.78941e-05 54.4065 4.6033 46.4341 12.0752 42.1202L79.4248 3.23545ZM90.9385 24.1495C48.217 24.1497 13.5842 58.7825 13.584 101.504C13.584 144.226 48.2169 178.858 90.9385 178.858C133.66 178.858 168.293 144.226 168.293 101.504C168.293 58.7824 133.66 24.1495 90.9385 24.1495Z" fill="#C164FF"/>
<path d="M57.664 114.04L59.248 106.84H82.648L84.304 114.04H57.664ZM70.84 90.856L62.92 109.36L62.776 111.232L55.792 127H46.216L70.84 73.792L95.464 127H85.888L79.048 111.664L78.832 109.576L70.84 90.856Z" fill="#C164FF"/>
<path d="M104.639 110.8C105.743 112.72 106.919 114.424 108.167 115.912C109.463 117.352 110.879 118.48 112.415 119.296C113.951 120.064 115.679 120.448 117.599 120.448C119.903 120.448 121.775 119.824 123.215 118.576C124.655 117.328 125.375 115.72 125.375 113.752C125.375 111.88 124.919 110.392 124.007 109.288C123.095 108.136 121.823 107.176 120.191 106.408C118.607 105.592 116.759 104.8 114.647 104.032C113.399 103.6 112.007 103.024 110.471 102.304C108.935 101.536 107.471 100.6 106.079 99.496C104.687 98.344 103.535 96.952 102.623 95.32C101.711 93.64 101.255 91.624 101.255 89.272C101.255 86.584 101.951 84.232 103.343 82.216C104.735 80.152 106.607 78.568 108.959 77.464C111.359 76.312 114.071 75.736 117.095 75.736C120.071 75.736 122.663 76.264 124.871 77.32C127.079 78.376 128.927 79.72 130.415 81.352C131.951 82.984 133.151 84.688 134.015 86.464L127.103 90.352C126.479 89.104 125.687 87.952 124.727 86.896C123.767 85.792 122.639 84.928 121.343 84.304C120.095 83.632 118.631 83.296 116.951 83.296C114.599 83.296 112.871 83.848 111.767 84.952C110.663 86.008 110.111 87.256 110.111 88.696C110.111 89.992 110.495 91.168 111.263 92.224C112.079 93.232 113.327 94.192 115.007 95.104C116.687 96.016 118.871 96.952 121.559 97.912C123.047 98.44 124.535 99.112 126.023 99.928C127.559 100.744 128.951 101.776 130.199 103.024C131.447 104.224 132.431 105.64 133.151 107.272C133.919 108.904 134.303 110.824 134.303 113.032C134.303 115.384 133.847 117.496 132.935 119.368C132.023 121.24 130.775 122.824 129.191 124.12C127.607 125.368 125.807 126.328 123.791 127C121.823 127.72 119.759 128.08 117.599 128.08C114.623 128.08 111.863 127.504 109.319 126.352C106.823 125.152 104.639 123.568 102.767 121.6C100.895 119.632 99.4069 117.496 98.3029 115.192L104.639 110.8Z" fill="#C164FF"/>
</svg>
